<svg width="20" height="20" viewBox="0 0 20 20" fill="none" xmlns="http://www.w3.org/2000/svg">
<g clip-path="url(#clip0_4_6)">
<path d="M15.1825 0.182458C15.2406 0.124253 15.3095 0.078075 15.3855 0.0465669C15.4614 0.0150588 15.5428 -0.00115967 15.625 -0.00115967C15.7072 -0.00115967 15.7886 0.0150588 15.8646 0.0465669C15.9405 0.078075 16.0095 0.124253 16.0675 0.182458L19.8175 3.93246C19.8757 3.99051 19.9219 4.05948 19.9534 4.13542C19.9849 4.21135 20.0011 4.29275 20.0011 4.37496C20.0011 4.45717 19.9849 4.53857 19.9534 4.6145C19.9219 4.69043 19.8757 4.7594 19.8175 4.81746L7.31751 17.3175C7.25753 17.377 7.18609 17.4238 7.10751 17.455L0.857513 19.955C0.743933 20.0004 0.619508 20.0115 0.499663 19.987C0.379817 19.9624 0.269822 19.9032 0.183314 19.8167C0.096806 19.7301 0.0375891 19.6202 0.0130048 19.5003C-0.0115795 19.3805 -0.000450157 19.256 0.0450132 19.1425L2.54501 12.8925C2.57617 12.8139 2.62295 12.7424 2.68251 12.6825L15.1825 0.182458V0.182458ZM14.0088 3.12496L16.875 5.99121L18.4913 4.37496L15.625 1.50871L14.0088 3.12496ZM15.9913 6.87496L13.125 4.00871L5.00001 12.1337V12.5H5.62501C5.79077 12.5 5.94974 12.5658 6.06695 12.683C6.18416 12.8002 6.25001 12.9592 6.25001 13.125V13.75H6.87501C7.04077 13.75 7.19974 13.8158 7.31695 13.933C7.43416 14.0502 7.50001 14.2092 7.50001 14.375V15H7.86626L15.9913 6.87496V6.87496ZM3.79001 13.3437L3.65751 13.4762L1.74751 18.2525L6.52376 16.3425L6.65626 16.21C6.53704 16.1654 6.43425 16.0855 6.36166 15.981C6.28906 15.8764 6.25011 15.7522 6.25001 15.625V15H5.62501C5.45925 15 5.30028 14.9341 5.18307 14.8169C5.06586 14.6997 5.00001 14.5407 5.00001 14.375V13.75H4.37501C4.24774 13.7499 4.12352 13.7109 4.01898 13.6383C3.91444 13.5657 3.83456 13.4629 3.79001 13.3437V13.3437Z" fill="white"/>
</g>
<defs>
<clipPath id="clip0_4_6">
<rect width="20" height="20" fill="white"/>
</clipPath>
</defs>
</svg>
